999
roller_laser_cut_PVC_1.5mm_d40_4bumps_tangent_h8.284_w4_hole_d15_unit_mm
0
SECTION
2
ENTITIES
0
ARC
8
0
10
0.0000
20
0.0000
30
0.0
40
20.0000
50
5.7392
51
84.2608
0
ARC
8
0
10
0.0000
20
0.0000
30
0.0
40
20.0000
50
95.7392
51
174.2608
0
ARC
8
0
10
0.0000
20
0.0000
30
0.0
40
20.0000
50
185.7392
51
264.2608
0
ARC
8
0
10
0.0000
20
0.0000
30
0.0
40
20.0000
50
275.7392
51
354.2608
0
LINE
8
0
10
19.8997
20
-2.0000
30
0.0
11
28.2843
21
-2.0000
31
0.0
0
LINE
8
0
10
28.2843
20
-2.0000
30
0.0
11
28.2843
21
2.0000
31
0.0
0
LINE
8
0
10
28.2843
20
2.0000
30
0.0
11
19.8997
21
2.0000
31
0.0
0
LINE
8
0
10
2.0000
20
19.8997
30
0.0
11
2.0000
21
28.2843
31
0.0
0
LINE
8
0
10
2.0000
20
28.2843
30
0.0
11
-2.0000
21
28.2843
31
0.0
0
LINE
8
0
10
-2.0000
20
28.2843
30
0.0
11
-2.0000
21
19.8997
31
0.0
0
LINE
8
0
10
-19.8997
20
2.0000
30
0.0
11
-28.2843
21
2.0000
31
0.0
0
LINE
8
0
10
-28.2843
20
2.0000
30
0.0
11
-28.2843
21
-2.0000
31
0.0
0
LINE
8
0
10
-28.2843
20
-2.0000
30
0.0
11
-19.8997
21
-2.0000
31
0.0
0
LINE
8
0
10
-2.0000
20
-19.8997
30
0.0
11
-2.0000
21
-28.2843
31
0.0
0
LINE
8
0
10
-2.0000
20
-28.2843
30
0.0
11
2.0000
21
-28.2843
31
0.0
0
LINE
8
0
10
2.0000
20
-28.2843
30
0.0
11
2.0000
21
-19.8997
31
0.0
0
CIRCLE
8
0
10
0.0000
20
0.0000
30
0.0
40
7.5000
0
ENDSEC
0
EOF